<svg width="62" height="32" viewBox="0 0 62 32" fill="none" xmlns="http://www.w3.org/2000/svg">
<rect width="61.2969" height="31.926" rx="15.963" fill="#F63F00"/>
<path d="M30.6484 5.96301C28.6706 5.96301 26.7372 6.5495 25.0927 7.64832C23.4482 8.74713 22.1665 10.3089 21.4096 12.1362C20.6528 13.9634 20.4547 15.9741 20.8406 17.9139C21.2264 19.8537 22.1788 21.6356 23.5774 23.0341C24.9759 24.4326 26.7577 25.385 28.6975 25.7709C30.6373 26.1567 32.648 25.9587 34.4753 25.2018C36.3025 24.4449 37.8643 23.1632 38.9631 21.5187C40.0619 19.8742 40.6484 17.9408 40.6484 15.963C40.6456 13.3117 39.5912 10.7698 37.7164 8.89504C35.8417 7.02028 33.2997 5.96581 30.6484 5.96301ZM38.0061 20.138H34.7734L33.8831 18.9111L35.0975 15.3745L36.5398 14.9044L39.0629 16.8399C38.9434 18.0007 38.5835 19.1239 38.0061 20.138ZM22.2369 16.8399L24.7552 14.9053L26.1975 15.3755L27.4119 18.912L26.5234 20.138H23.2907C22.7127 19.1241 22.3521 18.0009 22.2321 16.8399H22.2369ZM23.1984 11.9707L23.7282 13.7592L22.2552 14.8832C22.3857 13.8633 22.7025 12.8761 23.1898 11.9707H23.1984ZM28.8215 18.2707L27.7196 15.064L30.6484 13.0505L33.5773 15.064L32.4754 18.2707H28.8215ZM37.5782 13.7592L38.1081 11.9707C38.5953 12.8761 38.9121 13.8633 39.0427 14.8832L37.5782 13.7592ZM36.9821 10.3572L36.0677 13.4419L34.6186 13.912L31.4177 11.712V10.214L34.2148 8.2909C35.2683 8.78363 36.2097 9.48685 36.9811 10.3572H36.9821ZM32.3859 7.68128L30.6484 8.87551L28.9109 7.68128C30.0569 7.44142 31.24 7.44142 32.3859 7.68128ZM27.0821 8.2909L29.8792 10.214V11.712L26.6792 13.912L25.2302 13.4419L24.3157 10.3572C25.0872 9.48685 26.0286 8.78363 27.0821 8.2909ZM24.4129 21.6765H26.3715L27.0609 23.6255C26.0598 23.1544 25.1603 22.4923 24.4129 21.6765ZM28.9177 24.2447L27.7754 21.0313L28.6629 19.8092H32.634L33.5215 21.0313L32.384 24.2447C31.2394 24.4846 30.0575 24.4846 28.9129 24.2447H28.9177ZM34.2407 23.6255L34.9302 21.6765H36.8888C36.14 22.4928 35.2388 23.1549 34.2359 23.6255H34.2407Z" fill="white"/>
</svg>
