<svg width="24" height="24" viewBox="0 0 24 24" fill="none" xmlns="http://www.w3.org/2000/svg">
<path d="M7.075 14.475C7.39167 14.7917 7.74167 15.025 8.125 15.175C8.50833 15.325 8.90833 15.4 9.325 15.4C9.74167 15.4 10.1417 15.325 10.525 15.175C10.9083 15.025 11.2583 14.7917 11.575 14.475L12.475 13.575C12.7917 13.2583 13.025 12.9083 13.175 12.525C13.325 12.1417 13.4 11.7417 13.4 11.325C13.4 10.9083 13.325 10.5127 13.175 10.138C13.025 9.76333 12.7917 9.41733 12.475 9.1L8.675 5.3C8.475 5.1 8.23767 5 7.963 5C7.68833 5 7.45067 5.1 7.25 5.3L3.3 9.275C3.1 9.475 3 9.70833 3 9.975C3 10.2417 3.1 10.475 3.3 10.675L7.075 14.475ZM18.575 22L12.7 16.125C12.2167 16.5583 11.6793 16.875 11.088 17.075C10.4967 17.275 9.90067 17.375 9.3 17.375C8.63333 17.375 7.98767 17.25 7.363 17C6.73833 16.75 6.17567 16.375 5.675 15.875L1.875 12.1C1.59167 11.8167 1.375 11.4877 1.225 11.113C1.075 10.7383 1 10.359 1 9.975C1 9.591 1.075 9.212 1.225 8.838C1.375 8.464 1.59167 8.13467 1.875 7.85L5.85 3.875C6.13333 3.59167 6.46267 3.375 6.838 3.225C7.21333 3.075 7.592 3 7.974 3C8.356 3 8.73533 3.075 9.112 3.225C9.48867 3.375 9.81767 3.59167 10.099 3.875L13.874 7.675C14.374 8.175 14.749 8.73767 14.999 9.363C15.249 9.98833 15.374 10.634 15.374 11.3C15.374 11.9 15.27 12.496 15.062 13.088C14.854 13.68 14.5333 14.2173 14.1 14.7L20 20.6L18.575 22ZM19.5 9C18.5333 9 17.7083 8.65833 17.025 7.975C16.3417 7.29167 16 6.46667 16 5.5C16 4.53333 16.3417 3.70833 17.025 3.025C17.7083 2.34167 18.5333 2 19.5 2C20.4667 2 21.2917 2.34167 21.975 3.025C22.6583 3.70833 23 4.53333 23 5.5C23 6.46667 22.6583 7.29167 21.975 7.975C21.2917 8.65833 20.4667 9 19.5 9ZM19.5 7C19.9167 7 20.271 6.85433 20.563 6.563C20.855 6.27167 21.0007 5.91733 21 5.5C20.9993 5.08267 20.8537 4.72867 20.563 4.438C20.2723 4.14733 19.918 4.00133 19.5 4C19.082 3.99867 18.728 4.14467 18.438 4.438C18.148 4.73133 18.002 5.08533 18 5.5C17.998 5.91467 18.144 6.269 18.438 6.563C18.732 6.857 19.086 7.00267 19.5 7Z" fill="#F63F00"/>
</svg>
