<svg width="62" height="32" viewBox="0 0 62 32" fill="none" xmlns="http://www.w3.org/2000/svg">
<rect width="61.2969" height="31.926" rx="15.963" fill="#F63F00"/>
<g clip-path="url(#clip0_1_65)">
<path d="M33.2266 22.213C33.2266 23.5939 32.4199 24.713 31.0391 24.713H25.8828C24.502 24.713 23.6953 23.5939 23.6953 22.213M33.7734 19.088C34.4637 19.088 35.0234 19.7876 35.0234 20.6505C35.0234 21.5134 34.4637 22.213 33.7734 22.213H23.1484C22.4582 22.213 21.8984 21.5134 21.8984 20.6505C21.8984 19.7876 22.4582 19.088 23.1484 19.088" stroke="#FFFFF0" stroke-width="1.3" stroke-miterlimit="10" stroke-linecap="round"/>
<path d="M23.1484 16.7443V16.7357C23.1484 14.5872 24.9062 13.463 27.0547 13.463H29.8672C32.0156 13.463 33.7734 14.5958 33.7734 16.7443V16.7357M30.0625 10.338L30.3531 12.8368M34.0859 19.088H27.6527C27.57 19.0881 27.4906 19.1209 27.432 19.1794L26.384 20.2275C26.3695 20.242 26.3522 20.2535 26.3333 20.2614C26.3143 20.2692 26.294 20.2733 26.2734 20.2733C26.2529 20.2733 26.2326 20.2692 26.2136 20.2614C26.1946 20.2535 26.1774 20.242 26.1629 20.2275L25.1148 19.1794C25.0563 19.1209 24.9769 19.0881 24.8941 19.088H22.8359C22.5873 19.088 22.3488 18.9892 22.173 18.8134C21.9972 18.6376 21.8984 18.3992 21.8984 18.1505C21.8984 17.9019 21.9972 17.6634 22.173 17.4876C22.3488 17.3118 22.5873 17.213 22.8359 17.213H34.0859C34.3346 17.213 34.573 17.3118 34.7488 17.4876C34.9247 17.6634 35.0234 17.9019 35.0234 18.1505C35.0234 18.3992 34.9247 18.6376 34.7488 18.8134C34.573 18.9892 34.3346 19.088 34.0859 19.088Z" stroke="#FFFFF0" stroke-width="1.3" stroke-miterlimit="10" stroke-linecap="round"/>
<path d="M30.6484 24.713H36.0902C36.4056 24.713 36.7093 24.5938 36.9405 24.3793C37.1716 24.1648 37.3132 23.8708 37.3367 23.5564L38.7344 10.338" stroke="#FFFFF0" stroke-width="1.3" stroke-miterlimit="10" stroke-linecap="round"/>
<path d="M35.0234 10.338L35.6484 7.83801L37.4844 7.21301" stroke="#FFFFF0" stroke-width="1.3" stroke-linecap="round" stroke-linejoin="round"/>
<path d="M29.3984 10.338H39.3984" stroke="#FFFFF0" stroke-width="1.3" stroke-miterlimit="10" stroke-linecap="round"/>
</g>
<defs>
<clipPath id="clip0_1_65">
<rect width="20" height="20" fill="white" transform="translate(20.6484 5.96301)"/>
</clipPath>
</defs>
</svg>
