<svg width="20" height="18" viewBox="0 0 20 18" fill="none" xmlns="http://www.w3.org/2000/svg">
<path d="M4.15203 0L2.77424 5.97235H3.54235L4.74926 0.746544H5.5041L4.64972 5.97235H5.40871L5.8276 3.40092H9.38613V5.97235H10.1327V3.40092H13.6912L14.1101 5.97235H14.8691L14.0147 0.746544H14.7695L15.9764 5.97235H16.7437L15.3668 0H4.15203ZM6.26309 0.746544H13.2557L13.5709 2.65438H5.94788L6.26309 0.746544ZM2.16954 6.71889V7.96313H17.3493V6.71889H2.16954ZM2.143 8.70968L0 18H19.5184L17.3741 8.70968H16.6069L18.5811 17.2535H16.7147L15.317 8.70968H14.558L15.147 12.318H10.1327V8.70968H9.38613V12.318H4.37184L4.96078 8.70968H4.2018L2.80617 17.2535H0.938157L2.91069 8.70968H2.143ZM4.24742 13.0645H15.2714L15.9557 17.2535H3.56309L4.24742 13.0645Z" fill="#F63F00"/>
</svg>
