<svg width="18" height="17" viewBox="0 0 18 17" fill="none" xmlns="http://www.w3.org/2000/svg">
<path d="M17.1605 3.63604C14.5627 3.63604 12.4564 5.74227 12.4564 8.34008C12.4564 10.9379 14.5627 13.0441 17.1605 13.0441M3.04836 0.500011L2.85236 4.81205M5.00838 0.500011L5.20438 4.81205M7.14283 1.42436C7.32316 2.48982 7.57561 4.35144 7.55522 6.33929C7.54503 7.36517 6.85981 8.28441 5.78258 8.52589C5.55992 8.57567 5.32276 8.62075 5.07502 8.65564L5.77435 14.1174C5.89744 15.0782 5.30591 16.0304 4.3455 16.1558C4.22672 16.1711 4.11814 16.1801 4.02837 16.1801C3.92214 16.1781 3.81612 16.1698 3.71084 16.1554C2.75044 16.03 2.1593 15.0782 2.28238 14.1174L2.98172 8.65564C2.74437 8.62194 2.50846 8.57879 2.27454 8.52628C1.19693 8.28441 0.511705 7.36477 0.501121 6.3389C0.481129 4.35144 0.732795 2.49021 0.913117 1.42475C1.00485 0.881823 1.47995 0.500011 2.03033 0.500011H6.02562C6.57639 0.500011 7.05111 0.881431 7.14283 1.42436Z" stroke="white" stroke-linecap="round" stroke-linejoin="round"/>
</svg>
